# xmcd
#
# Track frame offsets:
#	150
#	17352
#	36723
#	52683
#	70616
#	87513
#	104890
#	123187
#	140151
#	153192
#	169072
#	186510
#	199932
#	212385
#
# Disc length: 2895 seconds
# Revision: 4
# Processed by: cddbd v1.5.2PL0 Copyright (c) Steve Scherf et al.
# Submitted via: dBpowerAMP V12.0
#
DISCID=c50b4d0e
DTITLE=Various Artist - CDX Volume 269
DYEAR=2001
DGENRE=Country
TTITLE0=Tamara Walker - Angel Eyes
TTITLE1=Randy Travis - Baptism
TTITLE2=Lila McCann - Because of You
TTITLE3=Tim Rushlow - Crazy Life
TTITLE4=Trace Adkins - I'm Tryin'
TTITLE5=Joe Diffie - In Another World
TTITLE6=Leslie Satcher - Love Letters from Old Mexico
TTITLE7=Billy Yates - Shadows
TTITLE8=George Jones - The Man He Was
TTITLE9=Martina McBride - When God-Fearin Women Get the Blues
TTITLE10=Billy Hoffman - All I Wanted Was You
TTITLE11=Michael Chain - Becky Takes Off Her Clothes
TTITLE12=Debrae - Why Did You Have to Be So Nice
TTITLE13=Remove - Psa
EXTD=
EXTT0=
EXTT1=
EXTT2=
EXTT3=
EXTT4=
EXTT5=
EXTT6=
EXTT7=
EXTT8=
EXTT9=
EXTT10=
EXTT11=
EXTT12=
EXTT13=
PLAYORDER=
